<svg width="128" height="128" viewBox="0 0 128 128" fill="none" xmlns="http://www.w3.org/2000/svg">
  <rect width="128" height="128" rx="32" fill="#120E1E"/>
  <circle cx="64" cy="64" r="42" stroke="#E7C58F" stroke-width="2"/>
  <path d="M82 41C77 35.8 69.5 33 60.5 33C47.8 33 38 40.7 38 51.5C38 60.8 44.6 66.6 56.8 70.4L65.2 73C73.7 75.7 78 78.7 78 84.5C78 91.5 71.7 96 61.9 96C52.3 96 44.3 91.6 39.8 84.5L31 90.7C37.2 100.3 48.2 106 61.5 106C78.2 106 89 97.4 89 84.2C89 71.4 78.4 66 67.7 62.8L59.6 60.4C51.9 58.1 48 55.5 48 50.5C48 44.7 53.8 41 61.6 41C69.1 41 74.8 43.9 79.3 49.5L82 41Z" fill="#F6E4C0"/>
  <path d="M31 90.7L39.8 84.5" stroke="#F6E4C0" stroke-width="2" stroke-linecap="round"/>
</svg>

